<svg width="520" height="564" viewBox="0 0 520 564" fill="none" xmlns="http://www.w3.org/2000/svg">
<path d="M174.927 37.7233C194.825 44.1 216.577 37.1293 229.062 20.3746C246.609 -3.17208 281.018 -5.53172 301.614 15.3992C316.27 30.2927 338.769 34.2289 357.611 25.1956C384.09 12.5003 415.655 26.4017 424.165 54.5069C430.221 74.5053 448.314 88.4465 469.195 89.204C498.541 90.2685 520.03 117.246 514.504 146.087C510.572 166.609 520.114 187.362 538.252 197.736C563.742 212.317 570.231 246.191 551.936 269.16C538.917 285.504 537.722 308.314 548.961 325.929C564.755 350.685 554.76 383.695 527.885 395.531C508.763 403.953 497.104 423.595 498.869 444.415C501.349 473.675 477.158 498.259 447.862 496.25C427.016 494.821 407.564 506.794 399.452 526.05C388.05 553.112 355.205 563.638 330.198 548.244C312.404 537.291 289.616 538.853 273.484 552.133C250.812 570.796 216.838 564.853 201.849 539.601C191.184 521.633 170.28 512.427 149.824 516.688C121.076 522.678 93.7559 501.627 92.2189 472.301C91.1252 451.435 76.8943 433.569 56.801 427.836C28.5624 419.78 14.1545 388.443 26.4216 361.763C35.1503 342.778 30.8522 320.345 15.7247 305.931C-5.53532 285.674 -3.7302 251.232 19.5308 233.308C36.0822 220.554 42.7017 198.694 36.0053 178.901C26.5944 151.084 44.1991 121.425 73.1252 116.365C93.7076 112.764 109.728 96.4833 112.997 75.8455C117.591 46.8416 146.962 28.7616 174.927 37.7233Z" stroke="#FA6B2D" stroke-opacity="0.25"/>
</svg>
