<svg width="520" height="563" viewBox="0 0 520 563" fill="none" xmlns="http://www.w3.org/2000/svg">
<path d="M198.366 24.6505C213.01 -0.803416 246.899 -7.20964 269.824 11.1428C286.135 24.2015 308.942 25.4534 326.585 14.2584C351.38 -1.47472 384.365 8.60223 396.135 35.5059C404.509 54.6493 424.122 66.3566 444.947 64.643C474.213 62.2349 498.737 86.4865 496.656 115.778C495.175 136.621 507.1 156.101 526.336 164.262C553.369 175.73 563.814 208.601 548.358 233.57C537.361 251.337 538.867 274.128 552.107 290.293C570.714 313.011 564.687 346.97 539.398 361.897C521.404 372.518 512.146 393.399 516.357 413.865C522.275 442.628 501.156 469.896 471.827 471.361C450.958 472.403 433.057 486.589 427.275 506.668C419.148 534.887 387.776 549.217 361.126 536.884C342.164 528.109 319.72 532.351 305.269 547.443C284.959 568.653 250.521 566.763 232.655 543.458C219.943 526.875 198.098 520.201 178.289 526.849C150.449 536.191 120.834 518.513 115.845 489.574C112.295 468.983 96.0538 452.922 75.4242 449.602C46.4318 444.936 28.4244 415.521 37.4552 387.578C43.8811 367.696 36.9642 345.927 20.2404 333.4C-3.26279 315.796 -5.53734 281.381 15.4445 260.836C30.3742 246.217 34.366 223.728 25.3792 204.864C12.7495 178.353 26.7289 146.823 54.8551 138.382C74.8683 132.376 88.8543 114.318 89.6634 93.4384C90.8005 64.095 117.831 42.6732 146.658 48.2701C167.17 52.2526 187.947 42.7622 198.366 24.6505Z" stroke="#4B70F0" stroke-opacity="0.25"/>
</svg>
